<?xml version="1.0" encoding="UTF-8" standalone="no"?>
<svg
   width="128"
   height="128"
   version="1.1"
   id="svg22"
   sodipodi:docname="icon.svg"
   inkscape:version="1.2.2 (b0a8486541, 2022-12-01)"
   xmlns:inkscape="http://www.inkscape.org/namespaces/inkscape"
   xmlns:sodipodi="http://sodipodi.sourceforge.net/DTD/sodipodi-0.dtd"
   xmlns="http://www.w3.org/2000/svg"
   xmlns:svg="http://www.w3.org/2000/svg">
  <defs
     id="defs26" />
  <sodipodi:namedview
     id="namedview24"
     pagecolor="#ffffff"
     bordercolor="#000000"
     borderopacity="0.25"
     inkscape:showpageshadow="2"
     inkscape:pageopacity="0.0"
     inkscape:pagecheckerboard="0"
     inkscape:deskcolor="#d1d1d1"
     showgrid="false"
     inkscape:lockguides="true"
     inkscape:zoom="1.3037281"
     inkscape:cx="-281.11689"
     inkscape:cy="-31.064759"
     inkscape:window-width="2560"
     inkscape:window-height="1515"
     inkscape:window-x="0"
     inkscape:window-y="48"
     inkscape:window-maximized="1"
     inkscape:current-layer="svg22" />
  <rect
     width="124"
     height="124"
     x="2"
     y="2"
     fill="#363d52"
     stroke="#212532"
     stroke-width="4"
     rx="14"
     id="rect2"
     style="fill:#492b51;stroke:#231529;stroke-opacity:1;fill-opacity:1" />
  <path
     d="m 22.927,80.295 v 3.333 q 41.107,35.754 82.214,0 v -3.333 z"
     id="path4"
     style="fill:#75507b;stroke-width:0.101;fill-opacity:1" />
  <path
     fill="#478cbf"
     d="m 22.927,80.295 15.352,1.414 q 1.212,0.101 1.515,1.414 l 0.404,6.767 13.332,1.01 0.808,-6.161 q 0.202,-1.111 1.515,-1.515 h 16.362 q 1.313,0.404 1.515,1.515 l 0.808,6.161 13.332,-1.01 0.404,-6.767 q 0.303,-1.313 1.515,-1.414 l 15.352,-1.414 V 55.449 q 3.03,-3.939 5.656,-8.181 -3.535,-5.959 -8.383,-10.908 -4.343,2.02 -8.282,4.747 -4.04,-3.737 -8.888,-6.464 0.707,-5.151 0.808,-10.302 -5.959,-2.828 -12.423,-4.242 -2.626,4.343 -4.646,8.989 -4.949,-0.707 -9.898,0 -2.02,-4.646 -4.646,-8.989 -6.464,1.414 -12.423,4.242 0.101,5.151 0.808,10.302 -4.848,2.727 -8.888,6.464 -3.939,-2.727 -8.282,-4.747 -4.848,4.949 -8.383,10.908 2.626,4.242 5.656,8.181 z m 0,3.333 v 3.939 c 0,27.876 82.113,27.876 82.214,0 v -3.939 l -13.534,1.212 -0.505,6.969 q -0.202,1.01 -1.414,1.313 l -16.362,1.111 q -1.212,0 -1.616,-1.111 L 70.7,86.557 H 57.368 l -1.01,6.565 q -0.404,1.111 -1.616,1.111 L 38.38,93.122 Q 37.168,92.819 36.966,91.809 L 36.461,84.84 Z"
     id="path6"
     style="stroke-width:0.101;fill:#75507b" />
  <path
     style="fill:#004489;stroke:#ffffff;stroke-width:5.9;stroke-linecap:round;stroke-dasharray:none;paint-order:stroke fill markers;stop-color:#000000"
     d="M 64.013,72.5475 53.237923,65.056934"
     id="path478"
     sodipodi:nodetypes="cc" />
  <path
     style="fill:#004489;stroke:#ffffff;stroke-width:5.9;stroke-linecap:round;stroke-dasharray:none;paint-order:stroke fill markers;stop-color:#000000"
     d="M 64.013,72.5475 77.447542,93.953142"
     id="path1034"
     inkscape:transform-center-x="-2.6051835"
     inkscape:transform-center-y="-3.2902775"
     sodipodi:nodetypes="cc" />
  <path
     style="fill:#478cbf;fill-opacity:1;stroke:#ffffff;stroke-width:3;stroke-linecap:round;stroke-dasharray:none;paint-order:stroke fill markers;stop-color:#000000"
     d="M 64.013,94.871622 V 107.11065"
     id="path1400"
     sodipodi:nodetypes="cc" />
  <path
     style="fill:#478cbf;fill-opacity:1;stroke:#ffffff;stroke-width:3;stroke-linecap:round;stroke-dasharray:none;paint-order:stroke fill markers;stop-color:#000000"
     d="m 24.7542,72.547501 16.798032,-10e-7"
     id="path1402"
     sodipodi:nodetypes="cc" />
  <path
     style="fill:#478cbf;fill-opacity:1;stroke:#ffffff;stroke-width:3;stroke-linecap:round;stroke-dasharray:none;paint-order:stroke fill markers;stop-color:#000000"
     d="M 64.012996,30.279522 V 49.847854"
     id="path1404"
     sodipodi:nodetypes="cc" />
  <path
     style="fill:#478cbf;fill-opacity:1;stroke:#ffffff;stroke-width:3;stroke-linecap:round;stroke-dasharray:none;paint-order:stroke fill markers;stop-color:#000000"
     d="M 86.473768,72.547501 103.2718,72.5475"
     id="path1406"
     sodipodi:nodetypes="cc" />
  <path
     style="fill:#478cbf;fill-opacity:1;stroke:#ffffff;stroke-width:3;stroke-linecap:round;stroke-dasharray:none;paint-order:stroke fill markers;stop-color:#000000"
     d="M 79.895162,88.429662 91.773164,100.30766"
     id="path1410"
     sodipodi:nodetypes="cc" />
  <path
     style="fill:#478cbf;fill-opacity:1;stroke:#ffffff;stroke-width:3;stroke-linecap:round;stroke-dasharray:none;paint-order:stroke fill markers;stop-color:#000000"
     d="M 36.252837,100.30766 48.130839,88.429661"
     id="path1412"
     sodipodi:nodetypes="cc" />
  <path
     style="fill:#478cbf;fill-opacity:1;stroke:#ffffff;stroke-width:3;stroke-linecap:round;stroke-dasharray:none;paint-order:stroke fill markers;stop-color:#000000"
     d="M 36.252836,44.787336 48.130839,56.665339"
     id="path1414"
     sodipodi:nodetypes="cc" />
  <path
     style="fill:#478cbf;fill-opacity:1;stroke:#ffffff;stroke-width:3;stroke-linecap:round;stroke-dasharray:none;paint-order:stroke fill markers;stop-color:#000000"
     d="M 79.895162,56.665339 91.773164,44.787336"
     id="path1416"
     sodipodi:nodetypes="cc" />
</svg>
