<?xml version="1.0" encoding="UTF-8" standalone="no"?>
<svg
   width="32"
   height="32"
   viewBox="0 0 24 24"
   version="1.1"
   id="svg4"
   sodipodi:docname="icon.svg"
   inkscape:version="1.2.2 (b0a8486541, 2022-12-01)"
   xmlns:inkscape="http://www.inkscape.org/namespaces/inkscape"
   xmlns:sodipodi="http://sodipodi.sourceforge.net/DTD/sodipodi-0.dtd"
   xmlns="http://www.w3.org/2000/svg"
   xmlns:svg="http://www.w3.org/2000/svg">
  <defs
     id="defs8" />
  <sodipodi:namedview
     id="namedview6"
     pagecolor="#ffffff"
     bordercolor="#000000"
     borderopacity="0.25"
     inkscape:showpageshadow="2"
     inkscape:pageopacity="0.0"
     inkscape:pagecheckerboard="0"
     inkscape:deskcolor="#d1d1d1"
     showgrid="false"
     inkscape:zoom="7.375"
     inkscape:cx="14.847458"
     inkscape:cy="16.067797"
     inkscape:window-width="2560"
     inkscape:window-height="1515"
     inkscape:window-x="0"
     inkscape:window-y="48"
     inkscape:window-maximized="1"
     inkscape:current-layer="svg4" />
  <!-- Icon from Huge Icons by Hugeicons - undefined -->
  <path
     fill="none"
     stroke="currentColor"
     stroke-linecap="round"
     stroke-linejoin="round"
     stroke-width="1.5"
     d="M22 11.567c0 5.283-4.478 9.566-10 9.566q-.977.001-1.935-.178c-.459-.087-.688-.13-.848-.105c-.16.024-.388.145-.842.386a6.5 6.5 0 0 1-4.224.657a5.3 5.3 0 0 0 1.087-2.348c.1-.53-.148-1.045-.52-1.422C3.034 16.411 2 14.105 2 11.567C2 6.284 6.478 2 12 2s10 4.284 10 9.567M11.996 12h.008m3.987 0H16m-8 0h.009"
     color="currentColor"
     id="path2"
     style="fill:#ffd700;fill-opacity:1;stroke:#7b6400;stroke-opacity:1" />
</svg>
