<?xml version="1.0" encoding="UTF-8" standalone="no"?>
<svg
   width="128"
   height="128"
   version="1.1"
   id="svg22"
   sodipodi:docname="icon.svg"
   inkscape:version="1.2.2 (b0a8486541, 2022-12-01)"
   xmlns:inkscape="http://www.inkscape.org/namespaces/inkscape"
   xmlns:sodipodi="http://sodipodi.sourceforge.net/DTD/sodipodi-0.dtd"
   xmlns="http://www.w3.org/2000/svg"
   xmlns:svg="http://www.w3.org/2000/svg">
  <defs
     id="defs26" />
  <sodipodi:namedview
     id="namedview24"
     pagecolor="#ffffff"
     bordercolor="#000000"
     borderopacity="0.25"
     inkscape:showpageshadow="2"
     inkscape:pageopacity="0.0"
     inkscape:pagecheckerboard="0"
     inkscape:deskcolor="#d1d1d1"
     showgrid="false"
     inkscape:zoom="5.2149124"
     inkscape:cx="46.597139"
     inkscape:cy="20.997476"
     inkscape:window-width="2560"
     inkscape:window-height="1515"
     inkscape:window-x="0"
     inkscape:window-y="48"
     inkscape:window-maximized="1"
     inkscape:current-layer="svg22" />
  <path
     id="path1079"
     style="stroke-width:1.16533;fill:#3465a4"
     d="m 57.699565,6.7924551 c -3.838197,0.839599 -7.526198,2.0951401 -11.064544,3.7743499 0.06013,3.058557 0.296829,6.115117 0.716466,9.173674 -2.878661,1.619231 -5.51915,3.542294 -7.918016,5.761241 -2.338893,-1.619235 -4.792674,-3.025478 -7.371438,-4.22491 -0.739432,0.754831 -1.446535,1.532505 -2.134615,2.326655 -0.03782,-0.02344 -0.07295,-0.05045 -0.110804,-0.07386 -3.538328,2.09901 -6.781638,4.581434 -9.720254,7.460071 1.199436,2.578779 2.613065,5.039931 4.2323,7.378823 -2.218951,2.398863 -4.14201,5.039375 -5.761241,7.918016 -3.058557,-0.4198 -6.115118,-0.663874 -9.1736746,-0.723845 -1.6792018,3.538324 -2.9347467,7.226355 -3.7743533,11.064541 2.5787868,1.559263 5.2479569,2.944227 8.0066529,4.143662 -0.419804,2.938608 -0.419804,5.873135 0,8.811747 -2.758696,1.199435 -5.4278661,2.577017 -8.0066529,4.136277 0.8396066,3.838185 2.0951515,7.533602 3.7743533,11.07193 3.0585566,-0.05998 6.1151176,-0.304052 9.1736746,-0.723851 1.619231,2.878644 3.54229,5.519149 5.761241,7.918016 -1.619235,2.338895 -3.032864,4.800044 -4.2323,7.37882 2.938616,2.878638 6.181926,5.361068 9.720254,7.460078 2.578775,-1.19944 5.032538,-2.60567 7.371438,-4.22491 2.398858,2.21894 5.039371,4.13463 7.918016,5.75385 -0.419804,3.05856 -0.656496,6.12251 -0.716466,9.18106 3.538331,1.6792 7.226362,2.93475 11.064544,3.77436 1.559256,-2.57879 2.936841,-5.24797 4.136277,-8.00665 2.938604,0.4198 5.880524,0.4198 8.819132,0 1.199435,2.75868 2.577013,5.42786 4.136278,8.00665 3.838181,-0.83961 7.52622,-2.09516 11.064539,-3.77436 -0.05998,-3.05855 -0.304052,-6.1225 -0.723847,-9.18106 2.878633,-1.61922 5.519153,-3.53491 7.918016,-5.75385 2.338888,1.61924 4.800044,3.02547 7.378826,4.22491 3.538323,-2.09901 6.774263,-4.58144 9.712863,-7.460078 -1.19943,-2.578772 -2.60568,-5.03992 -4.22491,-7.37882 2.21895,-2.39886 4.13463,-5.039372 5.75385,-7.918016 3.05855,0.419803 6.12251,0.66388 9.18106,0.723851 1.67921,-3.538323 2.93476,-7.233748 3.77436,-11.07193 -2.57878,-1.559256 -5.24796,-2.936842 -8.00666,-4.136277 0.41981,-2.938604 0.41981,-5.873139 0,-8.811747 2.7587,-1.199435 5.42788,-2.584399 8.00666,-4.143662 -0.8396,-3.838182 -2.09515,-7.52622 -3.77436,-11.064541 -3.05855,0.05998 -6.12251,0.304052 -9.18106,0.723848 -1.61922,-2.878633 -3.5349,-5.519153 -5.75385,-7.918016 1.61923,-2.338889 3.02548,-4.800048 4.22491,-7.378823 -2.09901,-3.538324 -4.58884,-6.774252 -7.46745,-9.712864 -2.578811,1.199432 -5.039906,2.605675 -7.378831,4.22491 -2.39883,-2.218947 -5.03936,-4.14201 -7.918016,-5.761241 0.41981,-3.058558 0.663868,-6.115118 0.723847,-9.173675 C 82.317475,8.8876 78.629436,7.6320589 74.79124,6.7924599 73.231953,9.371239 71.854379,12.040413 70.654963,14.799108 c -2.938597,-0.419803 -5.880536,-0.419803 -8.819133,0 -1.199454,-2.758695 -2.577032,-5.427869 -4.136277,-8.0066481 z" />
  <g
     id="g1222"
     transform="matrix(3.781739,0,0,3.781739,-241.51576,-131.75067)"
     style="stroke-width:0.264429">
    <circle
       cx="85.853821"
       cy="48.273674"
       r="2.1408641"
       id="circle1083"
       style="fill:#ffffff;stroke-width:0.0267073" />
    <circle
       cx="75.720398"
       cy="48.273674"
       r="2.1408641"
       id="circle1085"
       style="fill:#ffffff;stroke-width:0.0267073" />
    <path
       d="m 81.476944,50.752533 c 0,-0.808771 -1.37967,-0.808771 -1.37967,0 v 2.045715 c 0,0.808771 1.37967,0.808771 1.37967,0 z"
       id="path401"
       style="fill:#ffffff;stroke-width:0.0267073" />
    <path
       id="path1211"
       style="fill:#ffffff;fill-opacity:0.996078;stroke-width:0.793286;stroke-linecap:round;stroke-linejoin:round;paint-order:stroke fill markers;stop-color:#000000"
       d="m 71.105468,53.340188 v 0.785156 l 3.187502,0.28711 0.11914,1.640625 c 0.03172,0.158581 0.14173,0.261023 0.33203,0.308593 l 3.85352,0.261719 c 0.1903,0 0.31746,-0.08728 0.38085,-0.261719 l 0.23829,-1.544921 h 3.14062 l 0.23633,1.544921 c 0.06344,0.174439 0.19056,0.261719 0.38086,0.261719 l 3.85351,-0.261719 c 0.1903,-0.04758 0.30229,-0.150012 0.33399,-0.308593 l 0.11914,-1.640625 3.1875,-0.28711 v -0.785156 l -3.61524,0.333984 c -0.19029,0.01586 -0.30982,0.125875 -0.35742,0.332032 l -0.0957,1.59375 -3.14062,0.238281 -0.18946,-1.451172 c -0.03172,-0.17444 -0.15127,-0.292039 -0.35742,-0.355469 h -3.85352 c -0.20616,0.06343 -0.32376,0.181029 -0.35546,0.355469 l -0.19141,1.451172 -3.13867,-0.238281 -0.09571,-1.59375 C 75.03054,53.800047 74.91099,53.690032 74.7207,53.674172 Z" />
  </g>
  <g
     fill="#414042"
     transform="matrix(0.08995767,0,0,0.08995767,17.941673,3.4900326)"
     id="g1093"
     style="stroke-width:3.81372">
    <circle
       cx="307"
       cy="532"
       r="60"
       id="circle1089"
       style="stroke-width:1.12275" />
    <circle
       cx="717"
       cy="532"
       r="60"
       id="circle1091"
       style="stroke-width:1.12275" />
  </g>
</svg>
