<?xml version="1.0" encoding="UTF-8" standalone="no"?>
<svg
   height="128"
   width="128"
   version="1.1"
   id="svg24"
   sodipodi:docname="icon.svg"
   inkscape:version="1.2.2 (b0a8486541, 2022-12-01)"
   xmlns:inkscape="http://www.inkscape.org/namespaces/inkscape"
   xmlns:sodipodi="http://sodipodi.sourceforge.net/DTD/sodipodi-0.dtd"
   xmlns="http://www.w3.org/2000/svg"
   xmlns:svg="http://www.w3.org/2000/svg">
  <defs
     id="defs28" />
  <sodipodi:namedview
     id="namedview26"
     pagecolor="#ffffff"
     bordercolor="#000000"
     borderopacity="0.25"
     inkscape:showpageshadow="2"
     inkscape:pageopacity="0.0"
     inkscape:pagecheckerboard="0"
     inkscape:deskcolor="#d1d1d1"
     showgrid="false"
     inkscape:zoom="5.2149125"
     inkscape:cx="52.44575"
     inkscape:cy="41.515557"
     inkscape:window-width="2560"
     inkscape:window-height="1515"
     inkscape:window-x="0"
     inkscape:window-y="48"
     inkscape:window-maximized="1"
     inkscape:current-layer="svg24" />
  <rect
     style="fill:#004489;fill-opacity:1;stroke:none;stroke-width:4;stroke-linecap:round;stroke-dasharray:none;stroke-opacity:1;paint-order:stroke fill markers;stop-color:#000000"
     id="rect2200"
     width="128"
     height="128"
     x="0"
     y="0"
     rx="18.082891"
     ry="18.082891" />
  <path
     d="m 22.927,80.295 v 3.333 q 41.107,35.754 82.214,0 v -3.333 z"
     id="path4"
     style="fill:#ffffff;stroke-width:0.101" />
  <path
     fill="#478cbf"
     d="m 22.927,80.295 15.352,1.414 q 1.212,0.101 1.515,1.414 l 0.404,6.767 13.332,1.01 0.808,-6.161 q 0.202,-1.111 1.515,-1.515 h 16.362 q 1.313,0.404 1.515,1.515 l 0.808,6.161 13.332,-1.01 0.404,-6.767 q 0.303,-1.313 1.515,-1.414 l 15.352,-1.414 V 55.449 q 3.03,-3.939 5.656,-8.181 -3.535,-5.959 -8.383,-10.908 -4.343,2.02 -8.282,4.747 -4.04,-3.737 -8.888,-6.464 0.707,-5.151 0.808,-10.302 -5.959,-2.828 -12.423,-4.242 -2.626,4.343 -4.646,8.989 -4.949,-0.707 -9.898,0 -2.02,-4.646 -4.646,-8.989 -6.464,1.414 -12.423,4.242 0.101,5.151 0.808,10.302 -4.848,2.727 -8.888,6.464 -3.939,-2.727 -8.282,-4.747 -4.848,4.949 -8.383,10.908 2.626,4.242 5.656,8.181 z m 0,3.333 v 3.939 c 0,27.876 82.113,27.876 82.113,0 v -3.939 l -13.534,1.212 -0.505,6.969 q -0.202,1.01 -1.414,1.313 l -16.362,1.111 q -1.212,0 -1.616,-1.111 l -1.01,-6.565 h -13.13 l -1.01,6.565 q -0.404,1.111 -1.616,1.111 L 38.481,93.122 Q 37.269,92.819 37.067,91.809 L 36.562,84.84 Z"
     id="path6"
     style="stroke-width:0.101" />
  <path
     style="fill:none;fill-opacity:1;stroke:#ffffff;stroke-width:4;stroke-linecap:round;paint-order:stroke fill markers;stop-color:#000000;stroke-opacity:1;stroke-dasharray:none"
     d="M 41.267902,108.474 42.521,65.447998 64,29.176737 85.546997,65.447998"
     id="path1213" />
  <path
     d="m 61.105,72.922 c 0.303,3.434 5.555,3.434 5.858,0 v -8.686 c -0.303,-3.434 -5.555,-3.434 -5.858,0 z"
     id="path8"
     style="fill:#ffffff;stroke-width:0.101" />
  <circle
     cx="85.546997"
     cy="65.447998"
     r="9.0900002"
     id="circle10"
     style="fill:#ffffff;stroke-width:0.101;fill-opacity:1" />
  <circle
     cx="42.521"
     cy="65.447998"
     r="9.0900002"
     id="circle12"
     style="fill:#ffffff;stroke-width:0.101;fill-opacity:1" />
  <circle
     cx="64"
     cy="29.176737"
     r="9.0900002"
     id="circle325"
     style="fill:#ffffff;stroke-width:0.101;fill-opacity:1" />
  <circle
     cx="41.267902"
     cy="108.474"
     r="9.0900002"
     id="circle327"
     style="fill:#ffffff;stroke-width:0.101;fill-opacity:1" />
  <path
     style="fill:#ffffff;fill-opacity:1;stroke:#ffffff;stroke-width:4;stroke-linecap:round;stroke-dasharray:none;stroke-opacity:1;paint-order:stroke fill markers;stop-color:#000000"
     d="M 64,29.176737 V -6.1790764"
     id="path2331" />
</svg>
