<?xml version="1.0" encoding="UTF-8" standalone="no"?>
<!-- Created with Inkscape (http://www.inkscape.org/) -->

<svg
   width="12.7mm"
   height="12.7mm"
   viewBox="0 0 12.7 12.7"
   version="1.1"
   id="svg5"
   inkscape:version="1.2.2 (b0a8486541, 2022-12-01)"
   sodipodi:docname="icon.svg"
   xmlns:inkscape="http://www.inkscape.org/namespaces/inkscape"
   xmlns:sodipodi="http://sodipodi.sourceforge.net/DTD/sodipodi-0.dtd"
   xmlns="http://www.w3.org/2000/svg"
   xmlns:svg="http://www.w3.org/2000/svg">
  <sodipodi:namedview
     id="namedview7"
     pagecolor="#ffffff"
     bordercolor="#000000"
     borderopacity="0.25"
     inkscape:showpageshadow="2"
     inkscape:pageopacity="0.0"
     inkscape:pagecheckerboard="0"
     inkscape:deskcolor="#d1d1d1"
     inkscape:document-units="mm"
     showgrid="false"
     inkscape:zoom="13.455443"
     inkscape:cx="32.366083"
     inkscape:cy="23.299121"
     inkscape:window-width="2560"
     inkscape:window-height="1515"
     inkscape:window-x="0"
     inkscape:window-y="48"
     inkscape:window-maximized="1"
     inkscape:current-layer="layer1" />
  <defs
     id="defs2">
    <inkscape:path-effect
       effect="taper_stroke"
       id="path-effect5628"
       is_visible="false"
       lpeversion="1"
       stroke_width="0.312208"
       attach_start="0.2"
       end_offset="0.2"
       start_smoothing="0.5"
       end_smoothing="0.5"
       jointype="extrapolated"
       start_shape="center"
       end_shape="center"
       miter_limit="100" />
    <inkscape:path-effect
       effect="powerstroke"
       id="path-effect5572"
       is_visible="true"
       lpeversion="1"
       offset_points="0.34941491,0.4163901 | 0.99860355,0.26781869 | 1.8220868,0.33192272"
       not_jump="false"
       sort_points="true"
       interpolator_type="CubicBezierSmooth"
       interpolator_beta="0.2"
       start_linecap_type="zerowidth"
       linejoin_type="round"
       miter_limit="4"
       scale_width="1"
       end_linecap_type="zerowidth" />
    <inkscape:path-effect
       effect="fill_between_many"
       method="bsplinespiro"
       linkedpaths="#path564,0,1"
       id="path-effect5630" />
  </defs>
  <g
     inkscape:label="Layer 1"
     inkscape:groupmode="layer"
     id="layer1">
    <path
       style="fill:#729fcf;fill-rule:nonzero;stroke:none;stroke-width:0.08260503;stroke-linecap:round;stroke-dasharray:none;stroke-opacity:0.65882403;paint-order:stroke fill markers;stop-color:#000000;fill-opacity:1"
       d="m 1.0921339,6.5059678 c 0,0 0.8004968,-0.7952968 2.2545563,-2.0418462 C 3.8653037,4.0195199 4.4459575,3.5479722 4.9878683,3.1773929 5.3939215,2.8997182 5.7675158,2.686207 6.073465,2.5761549 c 0.1295232,-0.04659 0.2366621,-0.070788 0.3209746,-0.076815 0.077689,-0.00555 0.124097,0.00514 0.1485601,0.016967 0.01119,0.00541 0.017874,0.011012 0.022724,0.016062 0.00428,0.00446 0.00923,0.01081 0.0143,0.017969 0.010591,0.014964 0.028569,0.042173 0.048321,0.097917 0.018983,0.053576 0.037179,0.1281388 0.049334,0.2306478 0.00211,0.017765 0.00402,0.036248 0.00571,0.055474 0.00687,0.077802 0.011011,0.1745103 0.00883,0.2947916 C 6.6879275,3.4659418 6.6595603,3.7742944 6.5907437,4.183312 6.5334451,4.5238709 6.4525372,4.9083721 6.3472377,5.3455512 6.1521697,6.1554277 5.9225126,6.9513721 5.6817332,7.8167131 5.5732218,8.2066939 5.4715489,8.5797505 5.3891241,8.913858 5.3063214,9.2494974 5.2423605,9.5479922 5.2087558,9.793053 c -0.017119,0.1248408 -0.027031,0.240457 -0.026623,0.34323 2.086e-4,0.05251 0.00311,0.104387 0.00995,0.154229 0.00686,0.05 0.018344,0.103009 0.037984,0.154739 0.019945,0.05253 0.051084,0.111038 0.1009329,0.16264 0.025569,0.02647 0.055347,0.05034 0.089404,0.06995 0.034484,0.01986 0.070922,0.03395 0.1081448,0.0426 0.0374,0.0087 0.073694,0.01149 0.1076385,0.01036 0.034172,-0.0011 0.06614,-0.0062 0.095232,-0.01333 0.058267,-0.01423 0.1112761,-0.03812 0.1572561,-0.06368 0.09479,-0.05268 0.1914096,-0.130511 0.2851674,-0.216923 0.1040973,-0.09594 0.2171153,-0.214189 0.3351208,-0.346518 0.2848469,-0.3194216 0.6123407,-0.7365031 0.9145131,-1.1341701 -8.04e-5,1.057e-4 0.025653,-0.0338 0.025573,-0.033695 C 7.6361006,8.6677554 7.832437,8.4179956 8.018623,8.2146222 8.1689746,8.0503912 8.3005867,7.9297903 8.4080143,7.8573601 c 0.047711,-0.032168 0.08489,-0.050859 0.1115702,-0.060368 0.026435,-0.00942 0.033918,-0.00714 0.031484,-0.00658 -0.00193,4.412e-4 -0.00655,4.908e-4 -0.012595,-7.017e-4 -0.0061,-0.0012 -0.011948,-0.0033 -0.017091,-0.00578 -0.010229,-0.00493 -0.011277,-0.00814 -0.00578,0.00163 0.0058,0.010298 0.01547,0.029538 0.02635,0.063871 0.010523,0.033209 0.020593,0.075613 0.029249,0.1288003 0.017168,0.105492 0.026425,0.2385489 0.028109,0.3983339 0.00336,0.3186514 -0.023554,0.7039768 -0.055117,1.1000826 -0.033756,0.4236318 -0.068166,0.8094437 -0.080383,1.1568277 -0.00653,0.185625 -0.00627,0.351252 0.00385,0.496158 0.00545,0.07805 0.013848,0.151123 0.025978,0.218607 0.012963,0.07212 0.030802,0.141364 0.055829,0.205396 0.027457,0.07025 0.066184,0.140921 0.1225627,0.202057 0.031377,0.03402 0.067666,0.06445 0.1090183,0.08945 0.045179,0.02731 0.092864,0.04598 0.1411457,0.05687 0.031825,0.0072 0.06271,0.01071 0.092004,0.0116 0.019299,5.83e-4 0.038096,-4.5e-5 0.056271,-0.0017 0.048699,-0.0043 0.093139,-0.01568 0.1322408,-0.03011 0.083954,-0.03099 0.1541351,-0.08007 0.2101691,-0.128987 0.066121,-0.05773 0.1249494,-0.126174 0.1761455,-0.195116 0.062801,-0.08457 0.1195827,-0.177319 0.1688669,-0.267396 0.261352,-0.477668 0.31711,-0.815587 0.31711,-0.815587 0,0 -0.3024459,0.242807 -0.6646637,0.527015 -0.073908,0.05799 -0.1480549,0.113611 -0.2162044,0.159008 -0.056558,0.03768 -0.1060519,0.06631 -0.1452311,0.08338 -0.031346,0.01366 -0.056404,0.01885 -0.052646,0.01313 0.00122,-0.0019 0.00811,-0.0051 0.021187,-0.0066 0.00484,-5.4e-4 0.010476,-8.14e-4 0.016797,-6.23e-4 0.00962,2.91e-4 0.020839,0.0015 0.03314,0.0043 0.018971,0.0043 0.037774,0.01181 0.054878,0.02228 0.01552,0.0095 0.026787,0.01968 0.03418,0.02796 0.012561,0.01406 0.011875,0.02042 0.00461,0.0041 -0.00636,-0.01424 -0.015303,-0.04055 -0.02411,-0.08281 -0.00812,-0.03897 -0.015395,-0.08789 -0.021082,-0.148375 -0.010629,-0.11305 -0.014635,-0.254338 -0.012181,-0.428058 0.00466,-0.329566 0.030172,-0.6949681 0.056127,-1.1300082 0.023547,-0.3946823 0.044451,-0.8067793 0.03222,-1.1568389 C 9.1858579,8.1864286 9.1712002,8.0202022 9.1426311,7.8741703 9.1280411,7.799593 9.1092943,7.7274928 9.0848671,7.6602946 9.0601231,7.5922254 9.0280055,7.5248964 8.9851779,7.4640068 8.940869,7.4010114 8.8824683,7.3419823 8.8091973,7.2995111 8.7714802,7.2776486 8.7311878,7.2608493 8.6888402,7.2495328 8.6458531,7.2380454 8.6026282,7.2327058 8.5600127,7.2324653 8.4729131,7.2319738 8.39097,7.252713 8.3175637,7.2824033 8.2406518,7.3135116 8.1663526,7.3571772 8.0956316,7.4071555 7.9405414,7.516757 7.7789268,7.6738751 7.6187626,7.8520239 7.4166822,8.0767956 7.2093036,8.3438574 7.0197,8.6022497 c 0.0024,-0.00321 -0.022639,0.029777 -0.02271,0.029871 C 6.6973114,9.0265054 6.37715,9.4258658 6.1029244,9.7210801 5.9895334,9.8431499 5.8877952,9.9433196 5.8003418,10.018194 c -0.082002,0.07021 -0.1428259,0.110522 -0.1797261,0.126743 -0.015757,0.0069 -0.02322,0.0067 -0.015503,0.0037 0.00367,-0.0014 0.011382,-0.0035 0.022879,-0.0043 0.011479,-8.11e-4 0.026647,-3.28e-4 0.044296,0.0034 0.01769,0.0037 0.035927,0.01036 0.053557,0.02011 0.017382,0.0096 0.031785,0.02096 0.043314,0.03233 0.020863,0.02058 0.032024,0.04192 0.033225,0.04361 0.00262,0.0037 0.00159,-0.003 0.0012,-0.02001 -3.952e-4,-0.01719 -1.898e-4,-0.04053 0.00204,-0.07301 0.00441,-0.06428 0.015656,-0.148212 0.036011,-0.2558875 C 5.8815661,9.6836115 5.9504163,9.4128225 6.0430185,9.0872451 6.1344641,8.7657344 6.2453809,8.4035846 6.3649986,8.0175636 6.6261014,7.1749526 6.8856269,6.3525936 7.1032803,5.5376796 7.2224028,5.0916744 7.3174369,4.6895743 7.3870246,4.3270342 7.4704773,3.8922598 7.5122278,3.5406199 7.5217356,3.250946 c 0.00487,-0.1485195 0.00115,-0.2772685 -0.00879,-0.3898135 -0.00245,-0.027792 -0.00533,-0.05522 -0.00865,-0.082271 C 7.4855042,2.6256322 7.4522012,2.4811722 7.3997678,2.3499514 7.3438127,2.2099176 7.2638382,2.0807971 7.155974,1.9768072 7.0990577,1.9219355 7.0359108,1.8753968 6.9672543,1.8379646 6.8962322,1.7992428 6.8219612,1.7717025 6.7462576,1.7539819 6.5867972,1.7166556 6.4284382,1.7236675 6.2770841,1.7540089 6.1145451,1.7865926 5.9514458,1.8484638 5.7929542,1.9258792 5.4256298,2.1052995 5.0276625,2.396109 4.6407566,2.7217172 4.114945,3.1642242 3.5715708,3.7036487 3.0982084,4.2030661 1.7692288,5.6051959 1.0921339,6.5059678 1.0921339,6.5059678 Z"
       id="path564"
       sodipodi:nodetypes="ccc"
       inkscape:path-effect="#path-effect5572"
       inkscape:original-d="M 1.0921339,6.5059678 C 14.006112,-7.3650726 1.1519985,16.787152 7.2356066,8.7607173 10.781808,3.9291406 7.0533086,14.987216 10.074997,10.474747"
       inkscape:linked-fill="path5632" />
  </g>
</svg>
